PathFileType	4	(X/Y/Z)	RBDS015\RBDS015runT25.trc
DataRate	CameraRate	NumFrames	NumMarkers	Units	OrigDataRate	OrigDataStartFrame	OrigNumFrames
150.000000	150.000000	5	33	mm	150.000000	1687	4500
Frame#	Time	L.ASIS			L.Heel.Bottom			L.Heel.Lateral			L.Heel.Top			L.Iliac.Crest			L.MT1			L.MT5			L.PSIS			L.Shank.Bottom.Lateral			L.Shank.Bottom.Medial			L.Shank.Top.Lateral			L.Shank.Top.Medial			L.Thigh.Bottom.Lateral			L.Thigh.Bottom.Medial			L.Thigh.Top.Lateral			L.Thigh.Top.Medial			R.ASIS			R.ASY			R.Heel.Bottom			R.Heel.Lateral			R.Heel.Top			R.Iliac.Crest			R.MT1			R.MT5			R.PSIS			R.Shank.Bottom.Lateral			R.Shank.Bottom.Medial			R.Shank.Top.Lateral			R.Shank.Top.Medial			R.Thigh.Bottom.Lateral			R.Thigh.Bottom.Medial			R.Thigh.Top.Lateral			R.Thigh.Top.Medial			
		X1	Y1	Z1	X2	Y2	Z2	X3	Y3	Z3	X4	Y4	Z4	X5	Y5	Z5	X6	Y6	Z6	X7	Y7	Z7	X8	Y8	Z8	X9	Y9	Z9	X10	Y10	Z10	X11	Y11	Z11	X12	Y12	Z12	X13	Y13	Z13	X14	Y14	Z14	X15	Y15	Z15	X16	Y16	Z16	X17	Y17	Z17	X18	Y18	Z18	X19	Y19	Z19	X20	Y20	Z20	X21	Y21	Z21	X22	Y22	Z22	X23	Y23	Z23	X24	Y24	Z24	X25	Y25	Z25	X26	Y26	Z26	X27	Y27	Z27	X28	Y28	Z28	X29	Y29	Z29	X30	Y30	Z30	X31	Y31	Z31	X32	Y32	Z32	X33	Y33	Z33	

1688	11.24666666666667	2176.835564401979	1031.096898070919	951.0125147520195	1814.866868913236	238.3298367642993	983.3811439896502	1845.371172064608	236.7872199421868	942.213959670702	1848.503026832094	263.9634822757912	985.964586954272	2098.549403183386	1117.650364251603	910.3662147796417	1979.673439209082	107.834963747938	1018.483927598101	1950.532214883992	124.1554074727944	908.9915636598658	1995.793392848513	1080.877966602002	1008.608606941477	1986.060521150461	307.8543405677111	928.5165938770439	1953.285521485774	340.8211540240315	949.493584393989	2042.220826578468	365.7731205109169	917.9161699623461	2011.335568809415	402.1249717436659	941.0016015127313	2233.583392417056	672.8213111849745	898.5359568070169	2174.052166978903	644.3791548761121	916.0818426761136	2183.338829603601	770.383845951977	884.1323127519854	2120.441461611734	739.4734501091802	902.8264044358343	2167.023295025262	1024.593852997516	1178.126849927232	1944.480128355664	86.03090070729073	1110.454110020441	1758.201757384041	72.94000987446502	1079.979930114081	1783.296612833576	86.44397703019506	1125.021742213418	1776.835614896445	116.3206665914283	1083.070192974822	2101.996110735866	1103.082170739324	1215.964621404672	1966.613618972816	43.18304756423669	1064.906641351542	1914.387992086472	39.23174973070844	1174.460741422294	1991.928956244382	1084.160915658853	1100.537627525523	1887.168803091926	203.0676158217655	1148.099835607945	1845.25556417284	228.007273769075	1120.948179645683	1918.619933881751	276.5139918171308	1163.910167715453	1877.594559884134	299.5617518345177	1136.939048142614	2058.951702385219	674.3980700480588	1207.018349345822	2001.680629339248	673.4842828154639	1161.829043192526	2044.407828719619	782.6147433581048	1218.714708116305	1990.820916919966	782.5073440391235	1174.710271336831	
1689	11.25333333333333	2177.360818530624	1036.138903133962	951.103141631834	1833.191950496923	221.2483915757469	988.6977826140811	1863.288415473802	221.241491648007	947.0916183063908	1865.403441472227	248.7643803746037	990.7342724021366	2098.369136389907	1123.532341572237	910.4690501965601	2005.935291605228	100.6741309568638	1022.283330025779	1974.489083388437	114.6523835104649	913.1139886155953	1996.473628214112	1086.684474339622	1008.925850153392	1999.872122500924	300.2370626347877	931.9072488649788	1965.571883637758	331.4028350525516	953.2839250594067	2052.655685624782	361.083543760422	920.5757056517976	2020.181227988084	395.7014561486546	944.1627791384298	2235.674662877919	679.1569658293242	898.8276571737823	2176.232962584477	650.4996378626072	916.2543564950997	2185.018751430774	776.436771637904	883.9574898326221	2122.264796959695	745.2926342224565	902.5312338849928	2167.883607656344	1029.052519219814	1177.910087558098	1930.581981428061	86.60438417920875	1111.716438728074	1744.12811367661	80.87058974770819	1081.050215462615	1769.604908489553	92.74604198364882	1126.306700055478	1764.079475128104	123.4675843227147	1084.876661631147	2105.068198393665	1108.553024351078	1215.554454915861	1950.38492230663	43.42125877197741	1065.218784590219	1898.52459795057	39.75015267190673	1174.839710989207	1993.080285812796	1089.267370000386	1101.223701834012	1874.539599655128	208.5895146022542	1149.468680064547	1832.789697915806	233.445444929465	1121.914229217766	1906.221954759537	282.0814886317341	1164.676864421372	1865.244344273908	305.0378911659191	1137.507069761748	2051.944863465786	679.241067257817	1205.955422298155	1994.995760809176	679.9675022576082	1160.376865358732	2040.231832691511	787.702711637093	1217.740032859909	1986.845145970952	789.1534679131503	1173.479213665274	
1690	11.26	2177.982226414638	1041.192000961117	951.1192011890539	1852.615607665926	204.1576588502258	993.7854693166245	1882.239300349033	205.6168855286339	951.7697789215725	1883.247050960922	233.4980098570673	995.2612509145072	2098.507809838325	1129.622713881233	910.4370688778112	2032.734400841993	94.16532687782761	1026.091161322132	1999.215773120841	105.4427918410211	917.2114512056912	1997.301034358828	1092.570366723306	1009.241595216709	2014.081963289253	292.5375218700142	935.1179663794105	1978.339841577067	321.7766037244065	956.9346523250468	2063.239261384022	356.1799171548093	923.0812213097972	2029.223196899271	388.9568907764895	947.1768306444652	2237.020320321772	685.1274823708152	899.1098939344099	2177.626522438436	656.4032958912703	916.5467473933687	2186.17529858134	782.242603204539	883.8550702000877	2123.53251073309	751.0470435964361	902.4951726419498	2168.924651474589	1033.568985004585	1177.533601307303	1917.102488973161	87.1998850928924	1113.058471835353	1730.673695759766	89.42282208376334	1082.260980295541	1756.51694151867	99.55811041731782	1127.703004990486	1752.057398954933	131.1162038713338	1086.818504935677	2108.090119848001	1114.339721162483	1215.150201351421	1934.474908785142	43.72341952275551	1065.626307790644	1882.891194476245	40.46477282556844	1175.285525131249	1994.355694792083	1094.491792231585	1101.880976505732	1862.566658473426	214.4481886477519	1151.045601640807	1821.005709947027	239.1816700796028	1123.024310611407	1894.446325238149	287.9952218160502	1165.640291060957	1853.565551359979	310.8238754551571	1138.200133986348	2045.499691367695	684.2910821884557	1205.122207595412	1988.820375964077	686.5633193021775	1159.284827870104	2036.517303450341	792.9228285704869	1216.929660512988	1983.297640868164	795.8301500668525	1172.515154688806	
1691	11.26666666666667	2178.690860014183	1046.284713374538	951.0581362907443	1873.159536779768	187.2030242569694	998.5578037784226	1902.258845184717	190.0653623407931	956.1704830364802	1902.05308165218	218.2978674730946	999.4727233115453	2098.937769097368	1135.869671529053	910.2769504497894	2060.000393297707	88.41601180371659	1029.85765452889	2024.716920182592	96.67789661188401	921.2277961009274	1998.269501547055	1098.470787479741	1009.548840720794	2028.715144413775	284.8415475061028	938.1047581568043	1991.628341518878	312.0345152013289	960.3896667699437	2074.012221537691	351.1153037544772	925.3999541200559	2038.512616064557	381.9503404905098	949.9968462056829	2237.583096373982	690.6595870130936	899.4100544375543	2178.195364282062	662.0136993938937	916.984624622993	2186.761474782822	787.7260780189065	883.8552080573876	2124.193680100717	756.6582102029768	902.748779670801	2170.126805738154	1038.085575852244	1177.011747882646	1904.034670219413	87.8648665679366	1114.448518478112	1717.86594052726	98.51720835568761	1083.648559833607	1744.064031152606	106.8283785451307	1129.23194663405	1740.777468778944	139.1886630731664	1088.90301693986	2111.009148116553	1120.361223733142	1214.745653167913	1918.910610582402	44.1345974552578	1066.139311528967	1867.525247416473	41.43721474290172	1175.809351060857	1995.740847983665	1099.788293603207	1102.485338876259	1851.269074882248	220.5676610060943	1152.818136953494	1809.920575288167	245.1451529676284	1124.280460710926	1883.320191725244	294.1748597232578	1166.794400968578	1842.586060725924	316.8441134447144	1139.015856881704	2039.6404611658	689.4641391998	1204.519676775694	1983.167654654827	693.1826637785869	1158.552423651089	2033.263118154387	798.1954961248304	1216.297054416006	1980.1704029817	802.4527427946296	1171.824651253268	
1692	11.27333333333333	2179.476484089218	1051.415258152924	950.9146462606212	1894.818913835399	170.5411836251509	1002.944919374774	1923.354600456214	174.7567851582174	960.228941195447	1921.819100408306	203.3071808579674	1003.312707751327	2099.615607935323	1142.202403518568	910.0049713967414	2087.65005863446	83.52768959764127	1033.525060287124	2050.969900397627	88.52734496312085	925.1021359779509	1999.371513480684	1104.321766261323	1009.838560082144	2043.785245215298	277.2463314428134	940.8334883323104	2005.460588895712	302.2814679189517	963.6001163848592	2085.007538299715	345.9574015333721	927.5061137852376	2048.091513168824	374.7543931644372	952.5828544306324	2237.336590443043	695.6881625351552	899.7529070415532	2177.917873937486	667.2635176589424	917.5936774265598	2186.739157705196	792.8166920384907	883.9771192374731	2124.212008186097	762.0514336311631	903.3105915662032	2171.467805294512	1042.547032302664	1176.365423763409	1891.362241208349	88.65953769039602	1115.854199737063	1705.71620051246	108.0692717342076	1085.254706159605	1732.264196302683	114.5016034300753	1130.921547717152	1730.228894812115	147.6053281014488	1091.142667499744	2113.77868471938	1126.518662189473	1214.326997112982	1903.704019612176	44.7091773718057	1066.762479731227	1852.467161608148	42.73005406210218	1176.423037954185	1997.222149455916	1105.10722311887	1103.014829215529	1840.647239360448	226.8659379730697	1154.767144150122	1799.527948862338	251.2631770372959	1125.686060701654	1872.855299035839	300.5333744147117	1168.125605299645	1832.310524775846	323.020061830914	1139.954110088393	2034.365094726526	694.6778013827717	1204.130658591956	1978.034181466084	699.7415310124793	1158.148020581328	2030.449453509881	803.4457705460217	1215.838741035547	1977.444067803433	808.9455041870442	1171.387269028383	
